<svg width="791" height="257" viewBox="0 0 791 257" fill="none" xmlns="http://www.w3.org/2000/svg">
<path d="M411.496 130.272L375.11 30.1129C373.528 26.0642 371.419 24.832 367.024 24.832H349.095C344.525 24.832 342.415 25.7122 341.009 30.2889L304.799 130.096C303.217 134.321 304.096 136.609 309.018 136.609H325.541C333.451 136.609 335.384 134.849 336.966 129.92L340.658 118.655H374.583L378.274 129.92C379.505 134.849 381.965 136.609 390.051 136.609H407.102C411.672 136.785 413.078 134.497 411.496 130.272ZM361.575 75.7039L367.376 94.1868H347.689L353.489 75.5279C356.653 64.9663 356.478 53.7005 356.478 53.7005H358.06C358.235 53.5245 358.587 64.9663 361.575 75.7039ZM444.542 25.0081H426.789C421.691 25.0081 420.109 26.7683 420.109 31.6971V130.272C420.109 135.201 421.867 136.961 426.789 136.961H489.014C493.936 136.961 495.694 135.201 495.694 130.272V116.014C495.694 110.909 493.936 109.325 489.014 109.325H451.046V31.5211C451.222 26.5923 449.64 25.0081 444.542 25.0081ZM529.795 25.0081H512.041C506.943 25.0081 505.361 26.7683 505.361 31.6971V130.272C505.361 135.201 507.119 136.961 512.041 136.961H574.266C579.188 136.961 580.946 135.201 580.946 130.272V116.014C580.946 110.909 579.188 109.325 574.266 109.325H536.298V31.5211C536.298 26.5923 534.716 25.0081 529.795 25.0081Z" fill="black"/>
<path d="M676.568 90.3142H668.483V31.5211C668.483 26.5923 666.725 24.832 661.803 24.832H646.159C640.886 24.832 639.128 25.8882 635.964 29.5848L588.152 86.7937C584.988 90.4903 584.637 92.2505 584.637 97.5313V107.917C584.637 112.846 586.394 114.606 591.316 114.606H638.952V130.096C638.952 135.025 640.534 136.785 645.632 136.785H661.803C666.725 136.785 668.483 135.025 668.483 130.096V114.43H676.568C681.49 114.43 683.248 112.67 683.248 107.741V96.6512C683.248 92.0745 681.49 90.3142 676.568 90.3142ZM639.128 63.7341V90.3142H617.156L639.128 63.7341ZM724.028 97.0033V31.5211C724.028 26.5923 722.271 24.832 717.349 24.832H699.595C694.498 24.832 692.916 26.5923 692.916 31.5211V95.595C692.916 121.999 709.263 139.074 740.2 139.074C771.313 139.074 787.66 121.999 787.66 95.595V31.5211C787.66 26.5923 785.902 24.832 780.98 24.832H763.227C758.129 24.832 756.547 26.5923 756.547 31.5211V97.0033C756.547 106.333 751.098 111.438 740.2 111.438C729.478 111.438 724.028 106.333 724.028 97.0033Z" fill="#FF9600"/>
<path fill-rule="evenodd" clip-rule="evenodd" d="M255.757 128.148C255.757 155.256 247.319 180.428 233.081 201.023L224.117 182.54C223.238 180.78 221.48 179.724 219.546 179.724H100.193C96.502 179.724 94.0411 175.851 95.7989 172.507L149.587 63.0178C151.169 59.6733 148.884 55.8007 145.192 55.8007H105.994C104.06 55.8007 102.303 56.8568 101.424 58.6171L29.1791 209.649C11.074 187.469 0 159.129 0 128.148C0 57.3849 57.3036 0 127.966 0C198.453 0 255.757 57.3849 255.757 128.148ZM179.996 219.154L188.785 240.629C170.68 250.487 149.938 256.12 127.966 256.12C105.115 256.12 83.4945 250.135 65.0378 239.573C69.2565 231.476 74.0025 222.851 76.2876 218.626C77.1665 217.042 78.7485 216.162 80.682 216.162H175.602C177.36 216.162 179.293 217.394 179.996 219.154ZM173.493 97.3431L152.224 139.942C150.642 143.286 152.927 147.159 156.618 147.159H200.562C204.254 147.159 206.715 143.11 204.957 139.766L182.457 97.1671C180.524 93.6466 175.426 93.6466 173.493 97.3431Z" fill="#FF9600"/>
<path d="M303.395 183.482V172.92H349.624V183.482H332.925V226.96H319.918V183.482H303.395V183.482Z" fill="black"/>
<path d="M371.07 199.853C371.07 192.108 373.883 185.419 379.508 180.138C385.133 174.857 391.988 172.217 400.249 172.217C408.511 172.217 415.366 174.857 420.991 180.314C426.616 185.595 429.253 192.284 429.253 200.029C429.253 207.95 426.44 214.463 420.815 219.92C415.191 225.377 408.335 228.017 400.249 228.017C392.164 228.017 385.133 225.377 379.683 219.92C373.883 214.287 371.07 207.598 371.07 199.853ZM388.648 188.235C385.484 191.404 383.902 195.276 383.902 200.029C383.902 204.606 385.484 208.654 388.648 211.999C391.812 215.344 395.503 216.928 400.074 216.928C404.468 216.928 408.335 215.344 411.499 211.999C414.663 208.654 416.245 204.606 416.245 200.029C416.245 195.452 414.663 191.404 411.499 188.235C408.335 185.067 404.644 183.483 400.074 183.483C395.503 183.307 391.812 184.891 388.648 188.235Z" fill="black"/>
<path d="M481.105 227.842C474.425 227.842 468.801 225.906 464.23 222.209C459.66 218.337 457.375 213.056 457.375 206.367V173.098H470.383V206.367C470.383 209.535 471.261 212.176 473.195 214.288C475.129 216.4 477.765 217.457 481.105 217.457C484.621 217.457 487.257 216.4 489.191 214.288C491.124 212.176 492.003 209.535 492.003 206.367V173.098H505.011V206.367C505.011 213.056 502.726 218.337 498.155 222.209C493.409 225.906 487.785 227.842 481.105 227.842Z" fill="black"/>
<path d="M548.429 226.962H535.422V173.098H562.14C567.941 173.098 572.687 174.858 576.378 178.378C580.069 181.899 581.827 186.3 581.827 191.757C581.827 195.629 580.773 198.974 578.839 201.966C576.905 204.959 574.093 207.071 570.577 208.479L583.585 227.138H568.82L557.043 210.415H548.429V226.962ZM548.429 183.483V199.678H560.91C563.722 199.678 565.831 198.974 567.238 197.389C568.644 195.805 569.347 193.869 569.347 191.581C569.347 189.116 568.644 187.18 567.062 185.772C565.656 184.363 563.546 183.483 560.734 183.483H548.429V183.483Z" fill="black"/>
<path d="M623.66 173.098V226.962H610.652V173.098H623.66V173.098Z" fill="black"/>
<path d="M651.961 220.624L657.586 211.295C663.562 215.343 670.066 217.456 677.097 217.456C680.085 217.456 682.371 216.928 684.128 215.871C685.886 214.815 686.765 213.407 686.765 211.471C686.765 210.062 685.886 208.654 684.128 207.598C682.371 206.542 680.261 205.838 677.625 205.31C674.988 204.782 672.351 204.078 669.363 203.197C666.375 202.317 663.562 201.437 661.101 200.381C658.465 199.325 656.355 197.741 654.598 195.452C652.84 193.34 651.961 190.699 651.961 187.707C651.961 183.306 653.895 179.61 657.586 176.793C661.277 173.801 666.902 172.393 674.109 172.393C683.249 172.393 691.159 174.505 697.487 178.73L692.038 187.707C687.644 184.538 681.667 182.954 674.109 182.954C667.957 182.954 664.793 184.538 664.793 187.707C664.793 189.115 665.672 190.171 667.429 191.051C669.187 191.932 671.296 192.636 673.933 193.164C676.57 193.692 679.207 194.22 682.371 195.1C685.535 195.98 688.171 196.86 690.808 197.917C693.445 198.973 695.554 200.557 697.136 202.669C698.894 204.782 699.597 207.422 699.597 210.591C699.597 215.695 697.487 219.744 693.269 222.912C689.05 226.081 683.601 227.841 676.57 227.841C667.078 227.841 658.816 225.377 651.961 220.624Z" fill="black"/>
<path d="M727.371 226.962V173.098H740.554L757.253 198.446L774.128 173.098H787.311V226.962H774.304V193.693L757.253 219.921L740.379 193.693V226.962H727.371Z" fill="black"/>
</svg>
