<svg width="791" height="257" viewBox="0 0 791 257" fill="none" xmlns="http://www.w3.org/2000/svg">
<path d="M411.496 130.272L375.11 30.1129C373.528 26.0642 371.419 24.832 367.024 24.832H349.095C344.525 24.832 342.415 25.7122 341.009 30.2889L304.799 130.096C303.217 134.321 304.096 136.609 309.018 136.609H325.541C333.451 136.609 335.384 134.849 336.966 129.92L340.658 118.655H374.583L378.274 129.92C379.505 134.849 381.965 136.609 390.051 136.609H407.102C411.672 136.785 413.078 134.497 411.496 130.272ZM361.575 75.7039L367.376 94.1868H347.689L353.489 75.5279C356.653 64.9663 356.478 53.7005 356.478 53.7005H358.06C358.235 53.5245 358.587 64.9663 361.575 75.7039ZM444.542 25.0081H426.789C421.691 25.0081 420.109 26.7683 420.109 31.6971V130.272C420.109 135.201 421.867 136.961 426.789 136.961H489.014C493.936 136.961 495.694 135.201 495.694 130.272V116.014C495.694 110.909 493.936 109.325 489.014 109.325H451.046V31.5211C451.222 26.5923 449.64 25.0081 444.542 25.0081ZM529.795 25.0081H512.041C506.943 25.0081 505.361 26.7683 505.361 31.6971V130.272C505.361 135.201 507.119 136.961 512.041 136.961H574.266C579.188 136.961 580.946 135.201 580.946 130.272V116.014C580.946 110.909 579.188 109.325 574.266 109.325H536.298V31.5211C536.298 26.5923 534.716 25.0081 529.795 25.0081Z" fill="black"/>
<path d="M676.568 90.3142H668.483V31.5211C668.483 26.5923 666.725 24.832 661.803 24.832H646.159C640.886 24.832 639.128 25.8882 635.964 29.5848L588.152 86.7937C584.988 90.4903 584.637 92.2505 584.637 97.5313V107.917C584.637 112.846 586.394 114.606 591.316 114.606H638.952V130.096C638.952 135.025 640.534 136.785 645.632 136.785H661.803C666.725 136.785 668.483 135.025 668.483 130.096V114.43H676.568C681.49 114.43 683.248 112.67 683.248 107.741V96.6512C683.248 92.0745 681.49 90.3142 676.568 90.3142ZM639.128 63.7341V90.3142H617.156L639.128 63.7341ZM724.028 97.0033V31.5211C724.028 26.5923 722.271 24.832 717.349 24.832H699.595C694.498 24.832 692.916 26.5923 692.916 31.5211V95.595C692.916 121.999 709.263 139.074 740.2 139.074C771.313 139.074 787.66 121.999 787.66 95.595V31.5211C787.66 26.5923 785.902 24.832 780.98 24.832H763.227C758.129 24.832 756.547 26.5923 756.547 31.5211V97.0033C756.547 106.333 751.098 111.438 740.2 111.438C729.478 111.438 724.028 106.333 724.028 97.0033Z" fill="#7AB730"/>
<path fill-rule="evenodd" clip-rule="evenodd" d="M255.757 128.148C255.757 155.256 247.319 180.428 233.081 201.023L224.117 182.54C223.238 180.78 221.48 179.724 219.546 179.724H100.193C96.502 179.724 94.0411 175.851 95.7989 172.507L149.587 63.0178C151.169 59.6733 148.884 55.8007 145.192 55.8007H105.994C104.06 55.8007 102.303 56.8568 101.424 58.6171L29.1791 209.649C11.074 187.469 0 159.129 0 128.148C0 57.3849 57.3036 0 127.966 0C198.453 0 255.757 57.3849 255.757 128.148ZM179.996 219.154L188.785 240.629C170.68 250.487 149.938 256.12 127.966 256.12C105.115 256.12 83.4945 250.135 65.0378 239.573C69.2565 231.476 74.0025 222.851 76.2876 218.626C77.1665 217.042 78.7485 216.162 80.682 216.162H175.602C177.36 216.162 179.293 217.394 179.996 219.154ZM173.493 97.3431L152.224 139.942C150.642 143.286 152.927 147.159 156.618 147.159H200.562C204.254 147.159 206.715 143.11 204.957 139.766L182.457 97.1671C180.524 93.6466 175.426 93.6466 173.493 97.3431Z" fill="#7AB730"/>
<path d="M385 199.862C385 192.376 387.718 185.911 393.155 180.806C398.591 175.702 405.217 173.15 413.202 173.15C421.187 173.15 427.813 175.702 433.25 180.977C438.686 186.081 441.235 192.546 441.235 200.032C441.235 207.688 438.516 213.983 433.08 219.257C427.643 224.531 421.017 227.083 413.202 227.083C405.387 227.083 398.591 224.531 393.325 219.257C387.718 213.813 385 207.348 385 199.862ZM401.989 188.633C398.931 191.695 397.402 195.438 397.402 200.032C397.402 204.455 398.931 208.368 401.989 211.601C405.047 214.833 408.615 216.365 413.032 216.365C417.28 216.365 421.017 214.833 424.076 211.601C427.134 208.368 428.663 204.455 428.663 200.032C428.663 195.608 427.134 191.695 424.076 188.633C421.017 185.57 417.45 184.039 413.032 184.039C408.615 183.869 405.047 185.4 401.989 188.633Z" fill="#7AB730"/>
<path d="M491.354 226.914C484.898 226.914 479.461 225.042 475.044 221.47C470.627 217.727 468.418 212.623 468.418 206.157V174.002H480.99V206.157C480.99 209.22 481.84 211.772 483.708 213.814C485.577 215.855 488.126 216.876 491.354 216.876C494.751 216.876 497.3 215.855 499.169 213.814C501.038 211.772 501.887 209.22 501.887 206.157V174.002H514.459V206.157C514.459 212.623 512.251 217.727 507.833 221.47C503.246 225.042 497.81 226.914 491.354 226.914Z" fill="#7AB730"/>
<path d="M556.424 226.063H543.852V174.002H569.675C575.282 174.002 579.869 175.703 583.437 179.106C587.005 182.509 588.703 186.762 588.703 192.036C588.703 195.779 587.684 199.012 585.815 201.904C583.946 204.796 581.228 206.838 577.83 208.199L590.402 226.233H576.131L564.748 210.071H556.424V226.063ZM556.424 184.04V199.692H568.486C571.204 199.692 573.243 199.012 574.602 197.481C575.961 195.949 576.641 194.078 576.641 191.866C576.641 189.484 575.961 187.613 574.432 186.252C573.073 184.891 571.035 184.04 568.316 184.04H556.424V184.04Z" fill="#7AB730"/>
<path d="M629.139 174.002V226.063H616.566V174.002H629.139V174.002Z" fill="#7AB730"/>
<path d="M656.492 219.937L661.929 210.92C667.705 214.833 673.991 216.875 680.787 216.875C683.675 216.875 685.884 216.364 687.583 215.344C689.282 214.323 690.131 212.962 690.131 211.09C690.131 209.729 689.282 208.368 687.583 207.347C685.884 206.326 683.845 205.646 681.297 205.136C678.748 204.625 676.2 203.945 673.312 203.094C670.423 202.243 667.705 201.393 665.327 200.372C662.778 199.351 660.74 197.82 659.041 195.608C657.342 193.566 656.492 191.014 656.492 188.122C656.492 183.869 658.361 180.296 661.929 177.574C665.497 174.681 670.933 173.32 677.899 173.32C686.733 173.32 694.378 175.362 700.495 179.445L695.228 188.122C690.981 185.06 685.204 183.528 677.899 183.528C671.953 183.528 668.894 185.06 668.894 188.122C668.894 189.483 669.744 190.504 671.443 191.355C673.142 192.205 675.18 192.886 677.729 193.396C680.277 193.907 682.826 194.417 685.884 195.268C688.942 196.118 691.49 196.969 694.039 197.99C696.587 199.011 698.626 200.542 700.155 202.584C701.854 204.625 702.533 207.177 702.533 210.24C702.533 215.174 700.495 219.087 696.417 222.149C692.34 225.211 687.073 226.913 680.277 226.913C671.103 226.913 663.118 224.531 656.492 219.937Z" fill="#7AB730"/>
<path d="M729.375 226.063V174.002H742.117L758.257 198.501L774.567 174.002H787.309V226.063H774.737V193.908L758.257 219.258L741.947 193.908V226.063H729.375Z" fill="#7AB730"/>
<path d="M338.698 203.822C338.602 202.394 338.455 201.012 338.26 199.692C338.023 198.112 337.729 196.623 337.398 195.229C337.095 193.945 336.766 192.748 336.425 191.647C335.913 189.993 335.388 188.56 334.912 187.384C333.976 185.077 333.237 183.756 333.237 183.756L326.82 184.584C326.82 184.584 327.561 186.129 328.362 189.157C328.687 190.386 329.021 191.864 329.321 193.588C329.473 194.458 329.616 195.386 329.743 196.382C329.921 197.769 330.068 199.28 330.173 200.909C330.234 201.829 330.276 202.788 330.305 203.784C330.315 204.147 330.331 204.497 330.337 204.87C330.354 206.035 330.273 207.219 330.127 208.402C329.996 209.468 329.804 210.528 329.575 211.58C329.246 213.086 328.841 214.565 328.385 215.975C328.015 217.117 327.619 218.215 327.221 219.243C326.61 220.826 325.996 222.248 325.465 223.433C324.573 225.42 323.918 226.742 323.918 227.017C323.918 227.887 324.54 229.518 328.886 230.605C335.683 232.303 336.338 229.502 336.338 229.502C336.338 229.502 336.77 228.191 337.272 225.609C337.521 224.334 337.785 222.758 338.025 220.852C338.169 219.712 338.302 218.458 338.42 217.094C338.54 215.673 338.642 214.134 338.713 212.468C338.766 211.207 338.796 209.857 338.81 208.456C338.814 208.019 338.824 207.596 338.824 207.147C338.824 206.01 338.771 204.907 338.698 203.822V203.822Z" fill="#C1694F"/>
<path d="M332.175 220.951C329.683 220.517 328.093 219.791 327.221 219.247C326.61 220.83 325.996 222.252 325.465 223.437C327.092 224.323 329.157 225.027 331.399 225.416C332.693 225.641 333.978 225.755 335.183 225.755C335.919 225.755 336.61 225.696 337.272 225.613C337.521 224.337 337.785 222.762 338.025 220.856C337.237 221.135 335.276 221.49 332.175 220.951V220.951ZM334.057 212.651C332.116 212.459 330.623 212.033 329.573 211.582C329.244 213.088 328.839 214.567 328.383 215.978C329.917 216.557 331.724 216.974 333.613 217.16C334.375 217.235 335.132 217.274 335.869 217.274C336.761 217.274 337.606 217.205 338.418 217.098C338.538 215.677 338.64 214.138 338.711 212.472C337.595 212.711 336.031 212.845 334.057 212.651V212.651ZM334.606 208.863C336.066 208.863 337.501 208.715 338.808 208.458C338.812 208.021 338.823 207.598 338.823 207.149C338.823 206.01 338.771 204.907 338.696 203.822C337.757 204.067 336.414 204.305 334.519 204.33C332.594 204.321 331.239 204.055 330.303 203.787C330.313 204.149 330.329 204.499 330.335 204.872C330.353 206.037 330.271 207.222 330.125 208.404C331.48 208.69 332.976 208.854 334.496 208.861L334.606 208.863ZM334.164 200.734C335.629 200.522 336.988 200.142 338.256 199.695C338.02 198.114 337.725 196.626 337.395 195.231C336.514 195.594 335.265 195.997 333.521 196.247C331.905 196.482 330.67 196.468 329.74 196.384C329.917 197.771 330.065 199.283 330.17 200.911C330.44 200.922 330.685 200.963 330.962 200.963C332.006 200.965 333.093 200.886 334.164 200.734ZM336.421 191.647C335.91 189.994 335.384 188.561 334.908 187.385C334.121 187.779 333.125 188.195 331.823 188.555C330.411 188.948 329.271 189.104 328.358 189.157C328.683 190.386 329.017 191.864 329.317 193.589C330.527 193.468 331.773 193.271 333.036 192.921C334.242 192.587 335.363 192.139 336.421 191.647Z" fill="#D99E82"/>
<path d="M357.582 175.194C357.504 175.085 349.625 164.548 339.406 169.173C334.822 171.246 331.863 174.633 330.79 179.003C328.792 176.219 325.755 174.448 321.745 173.732C310.735 171.768 304.117 183.976 304.051 184.101C303.956 184.282 303.996 184.507 304.151 184.642C304.305 184.777 304.536 184.786 304.703 184.669C304.753 184.634 309.758 181.129 318.1 182.614C326.627 184.131 332.605 185.623 332.666 185.637C332.701 185.646 332.738 185.649 332.774 185.649C332.896 185.649 333.015 185.6 333.101 185.507C333.158 185.445 338.82 179.362 344.029 177.005C351.735 173.522 356.991 175.835 357.04 175.858C357.225 175.94 357.443 175.89 357.57 175.734C357.697 175.579 357.703 175.355 357.582 175.194Z" fill="#68A61D"/>
<path d="M349.19 181.099C341.367 176.964 335.25 178.98 331.438 181.49C326.865 180.625 318.413 180.674 311.255 189.849C302.405 201.193 310.158 215.322 310.238 215.464C310.357 215.675 310.58 215.803 310.818 215.803C310.845 215.803 310.873 215.801 310.9 215.798C311.168 215.764 311.39 215.572 311.461 215.311C311.488 215.215 314.173 205.507 320.963 197.341C324.647 192.908 329.044 188.805 332.167 186.081C335.296 186.61 339.852 187.763 344.326 190.261C353.131 195.186 357.174 203.522 357.214 203.605C357.335 203.861 357.589 204.006 357.888 203.982C358.168 203.95 358.401 203.745 358.465 203.472C358.5 203.316 361.96 187.842 349.19 181.099V181.099Z" fill="#7AB730"/>
</svg>
