<svg width="1000" height="1001" viewBox="0 0 1000 1001" fill="none" xmlns="http://www.w3.org/2000/svg">
<path fill-rule="evenodd" clip-rule="evenodd" d="M1000 500.803C1000 606.742 967.01 705.114 911.34 785.6L876.289 713.369C872.852 706.49 865.979 702.363 858.419 702.363H391.753C377.32 702.363 367.698 687.228 374.57 674.158L584.88 246.274C591.065 233.204 582.131 218.069 567.698 218.069H414.433C406.873 218.069 400 222.197 396.564 229.076L114.089 819.308C43.299 732.631 0 621.876 0 500.803C0 224.261 224.055 0 500.344 0C775.945 0 1000 224.261 1000 500.803ZM703.78 856.456L738.144 940.382C667.354 978.905 586.254 1000.92 500.344 1000.92C410.997 1000.92 326.46 977.529 254.296 936.254C270.79 904.61 289.347 870.902 298.282 854.392C301.718 848.201 307.904 844.761 315.464 844.761H686.598C693.471 844.761 701.031 849.577 703.78 856.456ZM678.351 380.418L595.189 546.893C589.003 559.964 597.938 575.098 612.371 575.098H784.192C798.625 575.098 808.247 559.276 801.375 546.206L713.402 379.73C705.842 365.971 685.911 365.971 678.351 380.418Z" fill="#7AB730"/>
</svg>
