<svg width="795" height="259" viewBox="0 0 795 259" fill="none" xmlns="http://www.w3.org/2000/svg">
<path d="M413.957 136.261L377.387 35.3219C375.797 31.2418 373.677 30 369.261 30H351.241C346.647 30 344.527 30.887 343.114 35.4993L306.721 136.084C305.131 140.341 306.014 142.647 310.961 142.647H327.567C335.517 142.647 337.461 140.873 339.051 135.906L342.761 124.553H376.857L380.567 135.906C381.804 140.873 384.277 142.647 392.404 142.647H409.541C414.134 142.825 415.547 140.518 413.957 136.261ZM363.784 81.2678L369.614 99.8945H349.827L355.657 81.0904C358.837 70.4466 358.661 59.0931 358.661 59.0931H360.251C360.427 58.9157 360.781 70.4466 363.784 81.2678ZM447.171 30.1774H429.327C424.204 30.1774 422.614 31.9514 422.614 36.9185V136.261C422.614 141.228 424.381 143.002 429.327 143.002H491.867C496.814 143.002 498.581 141.228 498.581 136.261V121.892C498.581 116.747 496.814 115.151 491.867 115.151H453.707V36.7411C453.884 31.774 452.294 30.1774 447.171 30.1774ZM532.854 30.1774H515.011C509.887 30.1774 508.297 31.9514 508.297 36.9185V136.261C508.297 141.228 510.064 143.002 515.011 143.002H577.551C582.497 143.002 584.264 141.228 584.264 136.261V121.892C584.264 116.747 582.497 115.151 577.551 115.151H539.391V36.7411C539.391 31.774 537.801 30.1774 532.854 30.1774Z" fill="#212121"/>
<path d="M680.369 95.9918H672.243V36.7411C672.243 31.774 670.476 30 665.529 30H649.806C644.506 30 642.739 31.0644 639.559 34.7897L591.506 92.4438C588.326 96.1692 587.973 97.9431 587.973 103.265V113.732C587.973 118.699 589.739 120.473 594.686 120.473H642.563V136.084C642.563 141.051 644.153 142.825 649.276 142.825H665.529C670.476 142.825 672.243 141.051 672.243 136.084V120.295H680.369C685.316 120.295 687.083 118.521 687.083 113.554V102.378C687.083 97.7657 685.316 95.9918 680.369 95.9918ZM642.739 69.2048V95.9918H620.656L642.739 69.2048ZM728.069 102.733V36.7411C728.069 31.774 726.303 30 721.356 30H703.513C698.389 30 696.799 31.774 696.799 36.7411V101.314C696.799 127.923 713.229 145.131 744.323 145.131C775.593 145.131 792.023 127.923 792.023 101.314V36.7411C792.023 31.774 790.256 30 785.309 30H767.466C762.343 30 760.753 31.774 760.753 36.7411V102.733C760.753 112.135 755.276 117.279 744.323 117.279C733.546 117.279 728.069 112.135 728.069 102.733Z" fill="#7AB730"/>
<path fill-rule="evenodd" clip-rule="evenodd" d="M257.05 129.145C257.05 156.464 248.57 181.832 234.26 202.588L225.25 183.961C224.367 182.187 222.6 181.123 220.657 181.123H100.7C96.99 181.123 94.5167 177.22 96.2833 173.849L150.343 63.5082C151.933 60.1377 149.637 56.2349 145.927 56.2349H106.53C104.587 56.2349 102.82 57.2993 101.937 59.0733L29.3267 211.28C11.13 188.928 0 160.367 0 129.145C0 57.8315 57.5933 0 128.613 0C199.457 0 257.05 57.8315 257.05 129.145ZM180.907 220.86L189.74 242.502C171.543 252.436 150.697 258.113 128.613 258.113C105.647 258.113 83.9167 252.082 65.3667 241.438C69.6067 233.277 74.3767 224.585 76.6733 220.327C77.5567 218.731 79.1467 217.844 81.09 217.844H176.49C178.257 217.844 180.2 219.086 180.907 220.86ZM174.37 98.1007L152.993 141.031C151.403 144.401 153.7 148.304 157.41 148.304H201.577C205.287 148.304 207.76 144.224 205.993 140.853L183.38 97.9233C181.437 94.3753 176.313 94.3753 174.37 98.1007Z" fill="#7AB730"/>
<path d="M306.309 193.927V185.85H341.567V193.927H328.831V227.177H318.91V193.927H306.309V193.927Z" fill="#7AB730"/>
<path d="M357.922 206.447C357.922 200.524 360.067 195.409 364.357 191.37C368.647 187.332 373.875 185.312 380.176 185.312C386.477 185.312 391.705 187.332 395.995 191.505C400.285 195.543 402.296 200.659 402.296 206.582C402.296 212.64 400.151 217.62 395.861 221.793C391.571 225.967 386.343 227.986 380.176 227.986C374.009 227.986 368.647 225.967 364.491 221.793C360.067 217.486 357.922 212.37 357.922 206.447ZM371.328 197.563C368.915 199.986 367.708 202.947 367.708 206.582C367.708 210.082 368.915 213.178 371.328 215.736C373.741 218.293 376.556 219.505 380.042 219.505C383.394 219.505 386.343 218.293 388.756 215.736C391.169 213.178 392.376 210.082 392.376 206.582C392.376 203.082 391.169 199.986 388.756 197.563C386.343 195.139 383.528 193.928 380.042 193.928C376.556 193.793 373.741 195.005 371.328 197.563Z" fill="#7AB730"/>
<path d="M441.84 227.854C436.746 227.854 432.456 226.373 428.971 223.546C425.485 220.585 423.742 216.546 423.742 211.431V185.988H433.663V211.431C433.663 213.854 434.333 215.873 435.808 217.488C437.282 219.104 439.293 219.911 441.84 219.911C444.522 219.911 446.533 219.104 448.007 217.488C449.482 215.873 450.152 213.854 450.152 211.431V185.988H460.073V211.431C460.073 216.546 458.33 220.585 454.844 223.546C451.225 226.373 446.935 227.854 441.84 227.854Z" fill="#7AB730"/>
<path d="M493.19 227.181H483.27V185.988H503.647C508.071 185.988 511.691 187.334 514.506 190.027C517.321 192.719 518.662 196.084 518.662 200.258C518.662 203.219 517.857 205.777 516.383 208.065C514.908 210.354 512.763 211.969 510.082 213.046L520.002 227.315H508.741L499.759 214.527H493.19V227.181ZM493.19 193.931V206.315H502.708C504.853 206.315 506.462 205.777 507.535 204.565C508.607 203.354 509.143 201.873 509.143 200.123C509.143 198.238 508.607 196.758 507.401 195.681C506.328 194.604 504.719 193.931 502.574 193.931H493.19V193.931Z" fill="#7AB730"/>
<path d="M550.561 185.988V227.181H540.641V185.988H550.561V185.988Z" fill="#7AB730"/>
<path d="M572.152 222.332L576.442 215.197C581 218.294 585.961 219.909 591.323 219.909C593.602 219.909 595.345 219.505 596.686 218.697C598.026 217.89 598.697 216.813 598.697 215.332C598.697 214.255 598.026 213.178 596.686 212.37C595.345 211.563 593.736 211.024 591.725 210.62C589.714 210.217 587.703 209.678 585.424 209.005C583.145 208.332 581 207.659 579.124 206.851C577.113 206.043 575.504 204.832 574.163 203.082C572.823 201.467 572.152 199.447 572.152 197.159C572.152 193.793 573.627 190.967 576.442 188.813C579.258 186.524 583.548 185.447 589.044 185.447C596.015 185.447 602.048 187.063 606.874 190.293L602.718 197.159C599.367 194.736 594.809 193.524 589.044 193.524C584.352 193.524 581.939 194.736 581.939 197.159C581.939 198.236 582.609 199.043 583.95 199.717C585.29 200.39 586.899 200.928 588.91 201.332C590.921 201.736 592.932 202.14 595.345 202.813C597.758 203.486 599.769 204.159 601.78 204.967C603.791 205.774 605.4 206.986 606.606 208.601C607.947 210.217 608.483 212.236 608.483 214.659C608.483 218.563 606.874 221.659 603.657 224.082C600.439 226.505 596.283 227.851 590.921 227.851C583.682 227.851 577.381 225.967 572.152 222.332Z" fill="#7AB730"/>
<path d="M629.664 227.181V185.988H639.719L652.455 205.373L665.324 185.988H675.379V227.181H665.458V201.738L652.455 221.796L639.585 201.738V227.181H629.664Z" fill="#7AB730"/>
<path d="M788.537 223.736C788.537 223.736 796.228 221.285 789.85 214.5C789.85 214.5 786.286 210.353 774.092 206.961C775.406 205.83 777.657 203.568 780.095 201.118L783.097 203.379C783.284 203.568 783.472 203.756 783.659 203.756C783.847 203.756 784.035 203.945 784.222 203.945C785.723 204.322 787.224 203.568 787.599 202.06C787.974 201.118 787.599 199.987 787.036 199.233C786.661 198.856 786.286 198.479 785.723 198.479H785.535L783.472 197.159C786.848 192.824 789.287 188.301 787.411 185.662L786.098 184.342C786.098 184.342 781.784 192.447 762.65 204.51C761.712 204.322 760.961 204.322 760.023 204.133C757.772 203.756 755.334 203.568 752.707 203.191C752.707 203.191 752.52 203.191 751.957 203.002C750.832 202.814 748.58 202.437 745.767 202.06C743.703 201.683 741.452 201.306 739.201 201.118C736.95 200.741 734.699 200.364 732.823 200.175L737.138 198.102L740.139 196.594C740.139 196.594 740.514 196.217 740.702 195.84C740.702 195.651 740.702 195.463 740.327 195.274C739.951 195.274 739.201 195.274 737.7 195.84L736.2 196.405L730.572 198.29L726.257 190.939L725.695 189.808L722.506 184.342C722.506 184.342 719.692 179.065 720.63 185.662C720.63 185.662 722.318 194.709 724.944 199.233L710.688 202.248C710.688 202.248 708.624 203.191 711.626 203.379L725.695 203.191C725.882 203.568 726.257 204.133 726.633 204.699C726.82 204.887 726.82 205.076 727.008 205.264C728.133 206.961 730.197 208.845 733.011 210.73C734.511 211.673 736.575 212.804 739.764 214.311C734.136 215.065 717.628 216.95 698.307 215.254C698.307 215.254 689.678 215.254 705.06 219.778C705.06 219.778 705.998 222.605 706.561 223.924C707.124 225.621 710.688 225.621 710.875 223.736C711.063 222.793 710.125 220.908 710.125 220.908C715.002 221.662 720.067 222.039 726.82 221.851C726.82 221.851 729.071 225.621 730.197 226.94C730.76 227.505 731.322 227.694 732.073 227.694C732.26 227.694 732.635 227.694 732.823 227.694C734.324 227.505 735.637 226.563 736.012 225.621C736.2 225.055 736.2 224.301 736.012 223.736C735.824 223.359 735.637 222.982 735.449 222.605L734.699 221.474C739.013 221.097 743.703 220.531 748.205 219.778C749.706 219.589 751.207 219.212 752.707 219.024C753.645 219.401 754.771 219.589 755.896 219.966C757.022 220.343 758.335 220.72 759.648 220.908C762.274 221.662 765.276 222.416 768.652 223.17C768.652 223.17 771.466 223.924 775.03 224.301C778.97 224.678 784.41 225.055 788.537 223.736Z" fill="#7AB730"/>
</svg>
